# xmcd
#
# Track frame offsets: 
#        150
#        17022
#        30075
#        50062
#        67800
#        82160
#        96975
#        116662
#        130912
#        150372
#        167325
#        177187
#        189675
#        205350
#        221775
#        230212
#        241200
#        258300
#        278212
#        290437
#        307387
#        323475
#
# Disc length: 4474 seconds
#
# Revision: 4
# Processed by: cddbd v1.5.2PL0 Copyright (c) Steve Scherf et al.
# Submitted via: ExactAudioCopyFreeDBPlugin 1.0
#
DISCID=3d117816
DTITLE=Various Artist - Roundup Records CD Sampler, Summer 1994
DYEAR=1994
DGENRE=Rock
TTITLE0=Charles Brown - Just a Lucky So and So
TTITLE1=Allison Krauss and the Cox Family - Walk Over God's Heaven
TTITLE2=Rory Block - I'll Be Gone
TTITLE3=Barbara Lynn - Can I Change My Mind
TTITLE4=Angela Strehli - Go On
TTITLE5=The Holmes Brothers - Fannie Mae
TTITLE6=Sleepy LaBeef - You're My Baby
TTITLE7=Smokin' Joe Kubek - Seems Like a Million Years
TTITLE8=Jimmy LaFave - Desperate Men
TTITLE9=Tom Russell - Purgatory Road
TTITLE10=Beau Jocque - Don't Tell Your Mama, Don't Tell Your Papa
TTITLE11=Michael Beausoleil Doucet with Family and Friends - Johnny Pe
TTITLE11=nt Pas Danser
TTITLE12=Laurie Lewis - Slow Learner
TTITLE13=Cheryl Wheeler - Silver Lining
TTITLE14=Bill Morrissey - Letter From Heaven
TTITLE15=Tony Rice - How Mountain Girls Can Love
TTITLE16=Duke Levine - Attack of the Mutant Guitars
TTITLE17=The Blazers - El  Ao Viejo
TTITLE18=Laika and The Cosmonauts - Piedras Negras
TTITLE19=Mario Bauza and His Afro-Cuban Jazz Orchestra - Jack the Knife
TTITLE20=Tish Minojosa - By the Rio Grande
TTITLE21=The Meditations - Do Mama Do
EXTD=
EXTT0=
EXTT1=
EXTT2=
EXTT3=
EXTT4=
EXTT5=
EXTT6=
EXTT7=
EXTT8=
EXTT9=
EXTT10=
EXTT11=
EXTT12=
EXTT13=
EXTT14=
EXTT15=
EXTT16=
EXTT17=
EXTT18=
EXTT19=
EXTT20=
EXTT21=
PLAYORDER=
